HIERARCHY
ROOT SpineBase
{
  OFFSET 0.000000 0.000000 0.000000
  CHANNELS 6 Xposition Yposition Zposition Zrotation Xrotation Yrotation
  JOINT SpineMid
  {
    OFFSET 0.000000 31.268210 0.000000
    CHANNELS 3 Zrotation Xrotation Yrotation
    JOINT SpineShoulder
    {
      OFFSET -0.083303 23.514668 -0.699886
      CHANNELS 3 Zrotation Xrotation Yrotation
      JOINT Neck
      {
        OFFSET -0.170374 7.804041 -0.514366
        CHANNELS 3 Zrotation Xrotation Yrotation
        JOINT Head
        {
          OFFSET 2.262994 11.766275 3.573447
          CHANNELS 3 Zrotation Xrotation Yrotation
          End Site
          {
            OFFSET 0 0 0
          }
        }
      }
      JOINT ShoulderLeft
      {
        OFFSET -3.006194 -5.941657 -14.409686
        CHANNELS 3 Zrotation Xrotation Yrotation
        JOINT ElbowLeft
        {
          OFFSET -0.174763 -24.144860 -8.257663
          CHANNELS 3 Zrotation Xrotation Yrotation
          JOINT WristLeft
          {
            OFFSET 6.483307 -21.572311 -1.946578
            CHANNELS 3 Zrotation Xrotation Yrotation
            JOINT HandLeft
            {
              OFFSET 0.780383 -7.614339 2.129639
              CHANNELS 3 Zrotation Xrotation Yrotation
              JOINT HandTipLeft
              {
                OFFSET 1.458001 -6.556082 1.183878
                CHANNELS 3 Zrotation Xrotation Yrotation
                End Site
                {
                  OFFSET 0 0 0
                }
              }
              JOINT ThumbLeft
              {
                OFFSET -4.600250 0.292638 3.121560
                CHANNELS 3 Zrotation Xrotation Yrotation
                End Site
                {
                  OFFSET 0 0 0
                }
              }
            }
          }
        }
      }
      JOINT ShoulderRight
      {
        OFFSET 8.351685 -3.481620 11.619779
        CHANNELS 3 Zrotation Xrotation Yrotation
        JOINT ElbowRight
        {
          OFFSET 12.300945 -4.877907 19.406968
          CHANNELS 3 Zrotation Xrotation Yrotation
          JOINT WristRight
          {
            OFFSET 7.350649 16.494678 -5.518446
            CHANNELS 3 Zrotation Xrotation Yrotation
            JOINT HandRight
            {
              OFFSET -3.230813 1.829580 -0.213129
              CHANNELS 3 Zrotation Xrotation Yrotation
              JOINT HandTipRight
              {
                OFFSET -4.476549 5.889327 -1.183246
                CHANNELS 3 Zrotation Xrotation Yrotation
                End Site
                {
                  OFFSET 0 0 0
                }
              }
              JOINT ThumbRight
              {
                OFFSET -3.753640 -2.007899 0.336940
                CHANNELS 3 Zrotation Xrotation Yrotation
                End Site
                {
                  OFFSET 0 0 0
                }
              }
            }
          }
        }
      }
    }
  }
  JOINT HipLeft
  {
    OFFSET -2.224629 1.740549 -11.322548
    CHANNELS 3 Zrotation Xrotation Yrotation
    JOINT KneeLeft
    {
      OFFSET -0.639260 -30.315102 3.310232
      CHANNELS 3 Zrotation Xrotation Yrotation
      JOINT AnkleLeft
      {
        OFFSET -9.304088 -31.084441 0.948742
        CHANNELS 3 Zrotation Xrotation Yrotation
        JOINT FootLeft
        {
          OFFSET 9.465632 -3.744888 -7.114465
          CHANNELS 3 Zrotation Xrotation Yrotation
          End Site
          {
            OFFSET 0 0 0
          }
        }
      }
    }
  }
  JOINT HipRight
  {
    OFFSET 3.247258 -0.702105 4.002706
    CHANNELS 3 Zrotation Xrotation Yrotation
    JOINT KneeRight
    {
      OFFSET 1.928651 -32.280193 9.553572
      CHANNELS 3 Zrotation Xrotation Yrotation
      JOINT AnkleRight
      {
        OFFSET -8.457295 -28.143619 1.238879
        CHANNELS 3 Zrotation Xrotation Yrotation
        JOINT FootRight
        {
          OFFSET 11.646781 -2.752809 -7.504794
          CHANNELS 3 Zrotation Xrotation Yrotation
          End Site
          {
            OFFSET 0 0 0
          }
        }
      }
    }
  }
}
MOTION
Frames: 15
Frame Time: 0.033333
-53.587852 67.961117 346.485282 2.898121 -0.498854 -68.463524 -0.405348 -0.085643 68.547013 -2.669443 0.156917 -0.075264 -5.631241 -3.781611 2.254112 0.000000 0.000000 0.000000 -1.222825 -0.342496 0.417445 2.539913 0.836422 -0.402385 -4.579851 3.686145 -0.441607 4.764127 -5.305963 0.733413 0.000000 0.000000 0.000000 0.000000 0.000000 0.000000 0.414039 7.070285 25.102658 -29.965225 18.880451 -37.874841 -61.942157 -3.802877 -23.003985 40.023632 8.914656 13.529247 0.000000 0.000000 0.000000 0.000000 0.000000 0.000000 -7.171665 -7.890507 67.086450 7.131585 -3.110054 1.037444 0.519450 -0.158118 -1.373589 0.000000 0.000000 0.000000 -2.989784 -8.287276 66.507771 5.747118 2.023427 1.425859 -32.528538 -25.025845 22.630816 0.000000 0.000000 0.000000
-53.654791 68.036378 346.703120 2.794661 -0.691014 -68.530420 -0.468479 -0.091411 68.613153 -2.537747 0.291793 -0.068059 -7.271625 -5.327207 2.902866 0.000000 0.000000 0.000000 -1.850718 -0.933558 0.626354 3.360193 1.436092 -0.659257 -5.179336 4.118683 -0.481121 7.262854 -5.205304 1.501217 0.000000 0.000000 0.000000 0.000000 0.000000 0.000000 0.176587 7.528536 26.089835 -36.658211 24.922744 -40.053121 -63.508705 -3.418681 -25.206416 40.572540 7.748948 11.246505 0.000000 0.000000 0.000000 0.000000 0.000000 0.000000 -7.360727 -7.634479 67.178781 7.063365 -3.204202 1.035806 0.419437 0.010016 -0.764353 0.000000 0.000000 0.000000 -3.479814 -8.013895 66.564030 5.982207 1.794635 1.395286 -34.696678 -27.172398 23.995787 0.000000 0.000000 0.000000
-53.635430 68.067638 346.896304 2.798444 -0.893071 -68.353451 -0.489957 -0.169477 68.439026 -1.882501 -0.078500 -0.037405 -8.976279 -6.336032 3.456709 0.000000 0.000000 0.000000 -3.164919 -1.068608 0.867667 3.997658 2.233085 -0.914095 -5.237503 3.916464 -0.590894 8.704157 -4.624145 1.969324 0.000000 0.000000 0.000000 0.000000 0.000000 0.000000 -0.692374 8.149975 24.978680 -41.585650 27.970324 -39.443209 -68.866994 -1.106636 -27.864881 42.238728 7.313776 9.021771 0.000000 0.000000 0.000000 0.000000 0.000000 0.000000 -7.562969 -7.657781 66.995773 8.072346 -3.306553 1.176460 -0.900056 0.175978 -0.078581 0.000000 0.000000 0.000000 -4.134429 -8.051097 66.287101 6.478618 1.514398 1.462726 -32.791853 -25.229589 23.433949 0.000000 0.000000 0.000000
-53.563034 68.071868 347.088228 2.847647 -1.129872 -68.082050 -0.467460 -0.249626 68.174514 -1.819073 -0.147601 -0.035976 -9.805391 -7.470898 3.902589 0.000000 0.000000 0.000000 -3.994845 -1.467542 1.148406 4.501952 3.047738 -1.175188 -4.768461 4.036537 -0.583184 9.535669 -3.468984 2.416241 0.000000 0.000000 0.000000 0.000000 0.000000 0.000000 -1.091057 8.491186 23.363002 -45.730231 29.366718 -38.104521 -70.283936 2.248588 -32.193485 42.698801 7.195861 8.343688 0.000000 0.000000 0.000000 0.000000 0.000000 0.000000 -7.882945 -7.792541 66.693564 8.485629 -3.185497 1.196383 -0.944856 0.615779 0.924111 0.000000 0.000000 0.000000 -4.964140 -8.193633 65.868592 7.134582 1.052696 1.610174 -27.073674 -19.498080 20.209896 0.000000 0.000000 0.000000
-53.445964 68.102418 347.151500 2.945949 -1.230753 -67.845930 -0.369267 -0.386191 67.945823 -1.741446 -0.260412 -0.033543 -10.369866 -8.452908 4.248244 0.000000 0.000000 0.000000 -4.883463 -1.850058 1.434777 4.516793 3.865565 -1.364025 -3.690076 4.274633 -0.582705 8.863286 -2.980777 2.392029 0.000000 0.000000 0.000000 0.000000 0.000000 0.000000 -2.195033 9.660101 22.397666 -46.769344 29.382066 -38.171642 -72.707388 5.632765 -35.870665 44.655100 7.707836 8.539674 0.000000 0.000000 0.000000 0.000000 0.000000 0.000000 -7.906311 -8.264435 66.408889 9.087461 -2.777033 1.203432 -1.311205 0.757312 1.749871 0.000000 0.000000 0.000000 -5.578406 -8.562842 65.448737 7.865723 0.675313 1.809027 -17.804000 -11.338850 13.772649 0.000000 0.000000 0.000000
-53.319893 67.975166 347.257545 3.031148 -1.404236 -67.345380 -0.320828 -0.472585 67.454005 -1.685663 -0.337466 -0.031458 -10.497879 -9.464318 4.487634 0.000000 0.000000 0.000000 -5.732143 -2.203900 1.710725 4.089791 4.669859 -1.451582 -2.794718 4.090576 -0.831302 8.199913 -2.312555 2.369044 0.000000 0.000000 0.000000 0.000000 0.000000 0.000000 -1.598470 8.842691 20.362490 -49.722527 30.274964 -35.560768 -71.414521 9.781914 -41.771728 44.031478 8.166424 14.991364 0.000000 0.000000 0.000000 0.000000 0.000000 0.000000 -8.326273 -8.630047 65.823607 9.772145 -2.647439 1.251724 -1.694358 0.916356 2.646071 0.000000 0.000000 0.000000 -6.234386 -8.905212 64.758139 8.577778 0.314446 2.034363 -12.080102 -6.758882 10.869074 0.000000 0.000000 0.000000
-53.161330 67.769365 347.329972 3.164295 -1.559779 -66.769652 -0.303333 -0.558662 66.888234 -1.622676 -0.438147 -0.027775 -10.550535 -10.073262 4.642869 0.000000 0.000000 0.000000 -6.489308 -2.514182 1.939094 3.265247 5.554540 -1.376361 -1.829921 3.676986 -1.211916 7.106281 -1.490260 2.287941 0.000000 0.000000 0.000000 0.000000 0.000000 0.000000 -1.369719 8.114951 17.640205 -51.459854 29.379699 -32.640322 -72.191426 11.365719 -43.378795 43.129115 7.587457 13.904140 0.000000 0.000000 0.000000 0.000000 0.000000 0.000000 -8.876158 -9.073490 65.131283 10.503150 -2.603419 1.320568 -2.021887 1.057269 3.437077 0.000000 0.000000 0.000000 -6.721433 -9.380551 63.983064 9.201777 0.312481 2.211788 -7.938776 -3.840836 8.516273 0.000000 0.000000 0.000000
-52.887727 67.549636 347.653704 3.451405 -2.055949 -66.256413 -0.511802 -0.611474 66.396036 -1.588591 -0.455292 -0.021389 -10.451855 -10.045395 4.679091 0.000000 0.000000 0.000000 -7.107890 -2.574227 2.109781 2.088782 6.252654 -1.160963 -1.056560 4.344997 -1.537170 6.178643 -2.231311 2.152085 0.000000 0.000000 0.000000 0.000000 0.000000 0.000000 -1.096997 7.401787 15.574682 -53.546522 28.827088 -30.156206 -73.946547 10.001181 -40.693146 40.638720 6.596908 11.612426 0.000000 0.000000 0.000000 0.000000 0.000000 0.000000 -10.470516 -9.492457 64.394347 11.462101 -3.196243 1.517141 -2.282173 1.176693 4.012134 0.000000 0.000000 0.000000 -8.058594 -9.782384 63.212819 9.903926 -0.162259 2.448834 -5.581973 -2.222751 7.264954 0.000000 0.000000 0.000000
-52.605330 67.315741 347.975986 3.739294 -2.511037 -65.951903 -0.687887 -0.658157 66.114829 -1.585032 -0.419356 -0.015352 -10.185499 -10.337098 4.698234 0.000000 0.000000 0.000000 -7.574281 -2.525114 2.233705 0.794972 6.693025 -0.903869 -0.991698 5.568313 -1.917406 5.756123 -4.262064 1.926366 0.000000 0.000000 0.000000 0.000000 0.000000 0.000000 -0.244671 6.400845 15.250016 -55.608083 30.424232 -28.592728 -74.669507 8.867592 -39.462262 37.109427 5.542656 10.609406 0.000000 0.000000 0.000000 0.000000 0.000000 0.000000 -11.886813 -9.901927 63.883509 12.272345 -3.722458 1.700495 -2.456452 1.279035 4.458029 0.000000 0.000000 0.000000 -9.474658 -10.115646 62.652135 10.498341 -0.744981 2.665608 -5.118597 -1.889599 7.325362 0.000000 0.000000 0.000000
-52.391734 67.088385 348.186716 3.942721 -2.790234 -65.525279 -0.788598 -0.682808 65.705407 -1.606718 -0.347309 -0.011219 -9.823014 -11.050885 4.721933 0.000000 0.000000 0.000000 -7.928003 -2.463718 2.329125 -0.090736 6.821186 -0.760427 -0.934196 7.813886 -1.914286 5.475690 -7.822117 1.408739 0.000000 0.000000 0.000000 0.000000 0.000000 0.000000 0.078897 5.805828 14.545052 -57.129300 30.799554 -27.328432 -73.917511 8.451783 -39.420241 35.324289 5.028649 9.203920 0.000000 0.000000 0.000000 0.000000 0.000000 0.000000 -13.046702 -10.165542 63.276345 12.926877 -4.213759 1.864826 -2.574438 1.342381 4.763693 0.000000 0.000000 0.000000 -10.135843 -10.421751 62.068648 10.888063 -0.839036 2.800268 -7.070823 -2.923768 9.224855 0.000000 0.000000 0.000000
-52.351507 66.875533 348.246879 3.953209 -2.849277 -65.232610 -0.709318 -0.639227 65.418480 -1.603525 -0.313340 -0.008106 -9.560426 -11.541568 4.734694 0.000000 0.000000 0.000000 -8.055061 -2.369828 2.353850 -0.904446 6.881134 -0.590455 0.762069 9.886018 -1.455224 4.065541 -11.330300 0.381293 0.000000 0.000000 0.000000 0.000000 0.000000 0.000000 0.104513 5.676942 14.277284 -58.004465 30.433527 -26.874280 -74.061165 6.997039 -37.208586 34.819614 5.013047 12.370071 0.000000 0.000000 0.000000 0.000000 0.000000 0.000000 -13.634289 -10.158869 62.893173 13.250408 -4.600725 1.974158 -2.645982 1.394639 4.922362 0.000000 0.000000 0.000000 -9.863674 -10.489628 61.805950 10.858753 -0.505538 2.788823 -7.118017 -2.841978 9.380219 0.000000 0.000000 0.000000
-52.262624 66.779686 348.246665 4.065298 -2.861258 -64.659427 -0.631869 -0.680501 64.854767 -1.588871 -0.329904 -0.004000 -9.297217 -11.822482 4.724090 0.000000 0.000000 0.000000 -8.217037 -2.227777 2.384191 -1.268463 7.108690 -0.438132 2.589329 10.533361 -1.123737 2.155273 -13.606734 -0.773603 0.000000 0.000000 0.000000 0.000000 0.000000 0.000000 -0.121935 5.958096 14.359058 -59.032820 29.789120 -26.976626 -75.046215 4.828450 -33.333516 36.022598 5.749697 8.272078 0.000000 0.000000 0.000000 0.000000 0.000000 0.000000 -14.108090 -10.294878 62.222919 13.630899 -4.783602 2.060182 -2.735467 1.433272 5.022670 0.000000 0.000000 0.000000 -9.760950 -10.805715 61.163573 11.046469 -0.080224 2.814018 -7.157631 -2.852065 9.492108 0.000000 0.000000 0.000000
-52.228493 66.759504 348.162525 4.119039 -2.782506 -64.031017 -0.504404 -0.713441 64.231239 -1.558820 -0.361356 -0.000127 -9.035557 -11.995191 4.691482 0.000000 0.000000 0.000000 -8.281418 -2.062489 2.382067 -1.273136 7.370530 -0.307123 5.869184 12.141007 -0.258937 -0.908304 -16.098485 -2.299898 0.000000 0.000000 0.000000 0.000000 0.000000 0.000000 -0.509811 6.583585 15.013075 -59.645527 29.242915 -27.816111 -75.085421 3.635054 -30.770171 37.598630 6.252878 3.272269 0.000000 0.000000 0.000000 0.000000 0.000000 0.000000 -14.232443 -10.363740 61.550308 13.886964 -4.740699 2.086901 -2.829371 1.412841 4.998562 0.000000 0.000000 0.000000 -9.441615 -11.103073 60.491485 11.188540 0.489692 2.804229 -7.205377 -2.916786 9.475764 0.000000 0.000000 0.000000
-52.167421 66.811854 348.118398 4.212330 -2.766412 -63.607995 -0.427507 -0.744815 63.815837 -1.571302 -0.355197 0.002849 -8.828268 -12.179293 4.671275 0.000000 0.000000 0.000000 -8.305727 -1.917344 2.370419 -0.666127 7.668759 -0.276948 9.536806 11.415341 0.562961 -5.334658 -15.246665 -3.869400 0.000000 0.000000 0.000000 0.000000 0.000000 0.000000 -1.293177 7.253665 14.279284 -60.150728 27.271397 -28.018629 -74.644733 3.642965 -29.586166 39.485215 6.518414 -0.299836 0.000000 0.000000 0.000000 0.000000 0.000000 0.000000 -14.367459 -10.540906 61.075946 14.196580 -4.654523 2.115197 -2.994311 1.473162 5.240514 0.000000 0.000000 0.000000 -9.445404 -11.373168 59.993517 11.396251 0.761487 2.832092 -7.266387 -2.925429 9.733965 0.000000 0.000000 0.000000
-52.026371 66.839954 348.209020 4.402306 -2.926128 -63.515528 -0.477341 -0.777681 63.738605 -1.590600 -0.344838 0.006844 -8.755946 -12.156666 4.658996 0.000000 0.000000 0.000000 -8.340588 -1.680905 2.359167 0.001460 7.781589 -0.313588 11.847436 9.961280 1.154763 -7.421357 -13.540168 -4.333385 0.000000 0.000000 0.000000 0.000000 0.000000 0.000000 -1.518974 7.595887 14.605162 -60.497428 26.900243 -28.401143 -73.840542 3.086537 -28.450495 40.159971 6.510276 -2.443847 0.000000 0.000000 0.000000 0.000000 0.000000 0.000000 -14.922655 -10.831986 60.872903 14.612124 -4.824083 2.209936 -3.057208 1.502319 5.216159 0.000000 0.000000 0.000000 -9.988105 -11.596378 59.783059 11.629778 0.645902 2.900769 -7.229946 -2.976886 9.730111 0.000000 0.000000 0.000000
